# xmcd CD database file
# Copyright (C) 1997 Ti Kan
# 
# Track frame offsets:
#     150
#     15325
#     30833
#     43410
#     55510
#     66865
#     79403
#     92813
#     103423
#     115648
#     129403
#     141443
#     152923
#     165298
# 
# Disc length: 2394 seconds
# 
# Revision: 1
# Processed by: cddbd v1.4b41PL1 Copyright (c) Steve Scherf et al.
# Submitted via: DiscPlay 4.0.3
# 
DISCID=b109580e
DTITLE=The Platters - Gold
DYEAR=1900
DGENRE=
TTITLE0=The Great Pretender
TTITLE1=My Prayer
TTITLE2=Twilight Time
TTITLE3=Smoke Gets In Your Eyes
TTITLE4=Only You (And You Alone)
TTITLE5=I'm Sorry
TTITLE6=Red Sails in the Sunset
TTITLE7=Crying in the Chapel
TTITLE8=Harbour Lights
TTITLE9=With This Ring
TTITLE10=Heaven on Earth
TTITLE11=I Love You 1,000 Times
TTITLE12=I Love You Because
TTITLE13=(You've Got) The Magic Touch
EXTD=
EXTT0=
EXTT1=
EXTT2=
EXTT3=
EXTT4=
EXTT5=
EXTT6=
EXTT7=
EXTT8=
EXTT9=
EXTT10=
EXTT11=
EXTT12=
EXTT13=
PLAYORDER=
